<?xml version="1.0" encoding="UTF-8"?>
<svg id="_レイヤー_1" data-name="レイヤー 1" xmlns="http://www.w3.org/2000/svg" viewBox="0 0 485.17 264.38">
  <path d="M3.27,92.12C3.27,43.05,42.9,3.27,91.78,3.27s88.51,39.78,88.51,88.85" style="fill: none; stroke: #231815; stroke-miterlimit: 10; stroke-width: 6.54px;"/>
  <path d="M152.75,93.47c0,46.64,39.98,84.45,89.29,84.45s89.29-37.81,89.29-84.45c0,0-2.8-22.57,9.85-31.26,1.45-.98,2.88-1.9,4.22-2.75.05-.03.1-.06.15-.09,8.8-5.48,19.92-5.25,28.94-.13,5.17,2.93,10.7,7.73,14.13,15.53,2.01,4.57,6.41,11.59,15.11,13.88s18.45,8.26,21.34,12.91-5.72,5.58-8.08,5.36c-9.38-.9-21.52-5.18-32.24-7.82s-12.38-3.34-19.76.44-13,7.73-13,7.73" style="fill: none; stroke: #231815; stroke-miterlimit: 10; stroke-width: 6.41px;"/>
  <g>
    <path d="M468.59,93.47c0-41.48-33.83-77.28-75.56-77.28s-75.56,35.8-75.56,77.28v2.17c0,39.51-33.3,70.11-75.08,70.11s-75.24-33.71-75.63-72.92v-1.39c-.37-41.27-33.8-76.76-74.97-76.76S16.8,50.55,16.8,92.12" style="fill: none; stroke: #231815; stroke-miterlimit: 10; stroke-width: 5.56px;"/>
    <path d="M303.49,93.47c0-48.96,39.94-88.65,89.2-88.65s89.2,39.69,89.2,88.65" style="fill: none; stroke: #231815; stroke-miterlimit: 10; stroke-width: 6.56px;"/>
  </g>
  <circle cx="372.03" cy="70.75" r="2.49" style="fill: none; stroke: #231815; stroke-miterlimit: 10; stroke-width: 5.56px;"/>
  <path d="M177.5,180.06h28.17c.16,0,.26.18.17.31-2.39,3.6-25.36,37.31-52.8,47.02-.14.05-.29-.06-.28-.21,1.33-27.18,23.4-46.06,24.61-47.08.04-.03.08-.04.13-.04Z" style="fill: #231815; stroke: #231815; stroke-miterlimit: 10; stroke-width: 5.56px;"/>
  <g>
    <path d="M60,254.89c-.61.31-2,.79-3.79.79-3.99,0-6.63-2.84-6.63-7.12s2.84-7.45,7.14-7.45c1.56,0,2.82.46,3.35.74l-.54,1.72c-.59-.33-1.51-.72-2.87-.72-3.23,0-4.92,2.59-4.92,5.58,0,3.38,2.02,5.5,4.84,5.5,1.38,0,2.33-.38,3.02-.69l.38,1.64Z" style="fill: #231815; stroke-width: 0px;"/>
    <path d="M79.95,248.31c0,5.2-3.43,7.4-6.53,7.4-3.58,0-6.35-2.69-6.35-7.2,0-4.76,2.97-7.4,6.53-7.4,3.81,0,6.35,2.92,6.35,7.19ZM73.52,242.78c-3.02,0-4.28,2.97-4.28,5.66,0,3.1,1.72,5.61,4.22,5.61s4.3-2.51,4.3-5.66c0-2.48-1.2-5.61-4.25-5.61Z" style="fill: #231815; stroke-width: 0px;"/>
    <path d="M99.46,255.4h-2.13v-8.24c0-2.28-.82-4.28-3.25-4.28-1.82,0-3.66,1.54-3.66,3.97v8.55h-2.12v-10.37c0-1.43-.05-2.48-.1-3.61h1.89l.13,2.28h.05c.69-1.36,2.3-2.59,4.48-2.59,1.74,0,4.71,1.05,4.71,5.79v8.5Z" style="fill: #231815; stroke-width: 0px;"/>
    <path d="M109.26,238.91l2.1-.72v3.25h3.61v1.66h-3.61v8.07c0,1.77.54,2.74,1.9,2.74.64,0,1.08-.08,1.43-.2l.13,1.64c-.46.2-1.18.33-2.07.33-3.38,0-3.48-3.07-3.48-4.56v-8.01h-2.15v-1.66h2.15v-2.54Z" style="fill: #231815; stroke-width: 0px;"/>
    <path d="M132.77,254.81c-.79.38-2.25.87-4.38.87-4.07,0-6.5-2.87-6.5-7.04,0-4.38,2.46-7.53,6.22-7.53,4.3,0,5.4,3.94,5.4,6.38,0,.49-.03.85-.05,1.18h-9.5c.03,3.87,2.23,5.33,4.74,5.33,1.74,0,2.79-.36,3.66-.72l.41,1.54ZM131.41,247.08c.03-1.89-.77-4.35-3.51-4.35-2.56,0-3.69,2.43-3.89,4.35h7.4Z" style="fill: #231815; stroke-width: 0px;"/>
    <path d="M152.97,255.4h-2.13v-8.24c0-2.28-.82-4.28-3.25-4.28-1.82,0-3.66,1.54-3.66,3.97v8.55h-2.12v-10.37c0-1.43-.05-2.48-.1-3.61h1.89l.13,2.28h.05c.69-1.36,2.3-2.59,4.48-2.59,1.74,0,4.71,1.05,4.71,5.79v8.5Z" style="fill: #231815; stroke-width: 0px;"/>
    <path d="M162.78,238.91l2.1-.72v3.25h3.61v1.66h-3.61v8.07c0,1.77.54,2.74,1.9,2.74.64,0,1.08-.08,1.43-.2l.13,1.64c-.46.2-1.18.33-2.07.33-3.38,0-3.48-3.07-3.48-4.56v-8.01h-2.15v-1.66h2.15v-2.54Z" style="fill: #231815; stroke-width: 0px;"/>
    <path d="M182.93,243.57c-.51-.33-1.46-.82-2.71-.82-1.54,0-2.36.95-2.36,2.07,0,1.2.79,1.77,2.59,2.53,2.25.92,3.56,2.1,3.56,4.2,0,2.48-1.9,4.12-4.94,4.12-1.38,0-2.71-.38-3.66-.95l.59-1.64c.74.44,1.95.95,3.15.95,1.87,0,2.79-1,2.79-2.25s-.74-2.02-2.59-2.76c-2.36-.95-3.56-2.25-3.56-3.94,0-2.18,1.74-3.97,4.56-3.97,1.33,0,2.46.38,3.2.84l-.61,1.61Z" style="fill: #231815; stroke-width: 0px;"/>
  </g>
  <g>
    <path d="M220.46,254.89c-.61.31-2,.79-3.79.79-3.99,0-6.63-2.84-6.63-7.12s2.84-7.45,7.14-7.45c1.56,0,2.82.46,3.35.74l-.54,1.72c-.59-.33-1.51-.72-2.87-.72-3.23,0-4.92,2.59-4.92,5.58,0,3.38,2.02,5.5,4.84,5.5,1.38,0,2.33-.38,3.02-.69l.38,1.64Z" style="fill: #231815; stroke-width: 0px;"/>
    <path d="M234.92,243.24c-.23-.03-.46-.05-.77-.05-2.3,0-3.48,2.28-3.48,4.63v7.58h-2.12v-9.78c0-1.48-.03-2.84-.1-4.17h1.87l.1,2.69h.08c.62-1.74,2.07-3,3.79-3,.23,0,.41.05.64.08v2.02Z" style="fill: #231815; stroke-width: 0px;"/>
    <path d="M252.41,254.81c-.79.38-2.25.87-4.38.87-4.07,0-6.5-2.87-6.5-7.04,0-4.38,2.46-7.53,6.22-7.53,4.3,0,5.4,3.94,5.4,6.38,0,.49-.03.85-.05,1.18h-9.5c.03,3.87,2.23,5.33,4.74,5.33,1.74,0,2.79-.36,3.66-.72l.41,1.54ZM251.05,247.08c.03-1.89-.77-4.35-3.51-4.35-2.56,0-3.69,2.43-3.89,4.35h7.4Z" style="fill: #231815; stroke-width: 0px;"/>
    <path d="M270.59,252.07c0,1.15.03,2.36.21,3.33h-1.95l-.21-1.79h-.08c-.72,1.1-2.15,2.1-4.12,2.1-2.66,0-4.07-1.95-4.07-3.97,0-3.35,2.92-5.17,8.09-5.15,0-1.18,0-3.84-3.18-3.84-1.2,0-2.46.33-3.41,1l-.51-1.46c1.13-.74,2.69-1.18,4.25-1.18,3.94,0,4.97,2.79,4.97,5.56v5.4ZM268.49,248.15c-2.64,0-5.94.38-5.94,3.33,0,1.79,1.13,2.59,2.41,2.59,2.07,0,3.53-1.59,3.53-3.28v-2.64Z" style="fill: #231815; stroke-width: 0px;"/>
    <path d="M280.37,238.91l2.1-.72v3.25h3.61v1.66h-3.61v8.07c0,1.77.54,2.74,1.9,2.74.64,0,1.08-.08,1.43-.2l.13,1.64c-.46.2-1.18.33-2.07.33-3.38,0-3.48-3.07-3.48-4.56v-8.01h-2.15v-1.66h2.15v-2.54Z" style="fill: #231815; stroke-width: 0px;"/>
    <path d="M295.04,238.99c-.82,0-1.38-.64-1.38-1.46s.59-1.43,1.41-1.43,1.38.64,1.38,1.43c0,.9-.59,1.46-1.41,1.46ZM296.12,255.4h-2.12v-13.95h2.12v13.95Z" style="fill: #231815; stroke-width: 0px;"/>
    <path d="M317.32,248.31c0,5.2-3.43,7.4-6.53,7.4-3.58,0-6.35-2.69-6.35-7.2,0-4.76,2.97-7.4,6.53-7.4,3.81,0,6.35,2.92,6.35,7.19ZM310.89,242.78c-3.02,0-4.28,2.97-4.28,5.66,0,3.1,1.71,5.61,4.22,5.61s4.3-2.51,4.3-5.66c0-2.48-1.2-5.61-4.25-5.61Z" style="fill: #231815; stroke-width: 0px;"/>
    <path d="M336.83,255.4h-2.12v-8.24c0-2.28-.82-4.28-3.25-4.28-1.82,0-3.66,1.54-3.66,3.97v8.55h-2.12v-10.37c0-1.43-.05-2.48-.1-3.61h1.89l.13,2.28h.05c.69-1.36,2.3-2.59,4.48-2.59,1.74,0,4.71,1.05,4.71,5.79v8.5Z" style="fill: #231815; stroke-width: 0px;"/>
  </g>
  <g>
    <path d="M374.79,255.19c-.62.31-2,.79-3.79.79-3.99,0-6.63-2.84-6.63-7.12s2.84-7.45,7.14-7.45c1.56,0,2.82.46,3.35.74l-.54,1.72c-.59-.33-1.51-.72-2.87-.72-3.23,0-4.92,2.59-4.92,5.58,0,3.38,2.02,5.5,4.84,5.5,1.38,0,2.33-.38,3.02-.69l.38,1.64Z" style="fill: #231815; stroke-width: 0px;"/>
    <path d="M383.93,239.29c-.82,0-1.38-.64-1.38-1.46s.59-1.43,1.41-1.43,1.38.64,1.38,1.43c0,.9-.59,1.46-1.41,1.46ZM385,255.7h-2.12v-13.95h2.12v13.95Z" style="fill: #231815; stroke-width: 0px;"/>
    <path d="M400.72,243.54c-.23-.03-.46-.05-.77-.05-2.3,0-3.48,2.28-3.48,4.63v7.58h-2.12v-9.78c0-1.48-.03-2.84-.1-4.17h1.87l.1,2.69h.08c.62-1.74,2.07-3,3.79-3,.23,0,.41.05.64.08v2.02Z" style="fill: #231815; stroke-width: 0px;"/>
    <path d="M417.75,255.19c-.62.31-2,.79-3.79.79-3.99,0-6.63-2.84-6.63-7.12s2.84-7.45,7.14-7.45c1.56,0,2.82.46,3.35.74l-.54,1.72c-.59-.33-1.51-.72-2.87-.72-3.23,0-4.92,2.59-4.92,5.58,0,3.38,2.02,5.5,4.84,5.5,1.38,0,2.33-.38,3.02-.69l.38,1.64Z" style="fill: #231815; stroke-width: 0px;"/>
    <path d="M427.97,255.7h-2.12v-20.48h2.12v20.48Z" style="fill: #231815; stroke-width: 0px;"/>
    <path d="M447.19,255.12c-.79.38-2.25.87-4.38.87-4.07,0-6.5-2.87-6.5-7.04,0-4.38,2.46-7.53,6.22-7.53,4.3,0,5.4,3.94,5.4,6.38,0,.49-.03.85-.05,1.18h-9.5c.03,3.87,2.23,5.33,4.74,5.33,1.74,0,2.79-.36,3.66-.72l.41,1.54ZM445.84,247.38c.03-1.89-.77-4.35-3.51-4.35-2.56,0-3.69,2.43-3.89,4.35h7.4Z" style="fill: #231815; stroke-width: 0px;"/>
  </g>
</svg>